<svg width="20" height="20" viewBox="0 0 20 20" fill="none" xmlns="http://www.w3.org/2000/svg">
<path d="M14.2467 13.6307C13.8584 13.238 13.2252 13.2344 12.8325 13.6228C12.4398 14.0111 12.4363 14.6443 12.8246 15.037L14.2467 13.6307ZM15.9556 18.2031C16.344 18.5958 16.9771 18.5994 17.3698 18.211C17.7625 17.8227 17.766 17.1896 17.3777 16.7969L15.9556 18.2031ZM14.8333 9.24157C14.8333 12.4231 12.2858 14.9831 9.16667 14.9831V16.9831C13.4114 16.9831 16.8333 13.5066 16.8333 9.24157H14.8333ZM9.16667 14.9831C6.04756 14.9831 3.5 12.4231 3.5 9.24157H1.5C1.5 13.5066 4.92198 16.9831 9.16667 16.9831V14.9831ZM3.5 9.24157C3.5 6.06003 6.04756 3.5 9.16667 3.5V1.5C4.92198 1.5 1.5 4.97658 1.5 9.24157H3.5ZM9.16667 3.5C12.2858 3.5 14.8333 6.06003 14.8333 9.24157H16.8333C16.8333 4.97658 13.4114 1.5 9.16667 1.5V3.5ZM12.8246 15.037L15.9556 18.2031L17.3777 16.7969L14.2467 13.6307L12.8246 15.037Z" fill="white"/>
</svg>
